# xmcd
#
# Track frame offsets: 
#        150
#        13582
#        27119
#        39410
#        52487
#        66476
#        81030
#        91468
#        102280
#        115427
#        129442
#        144161
#        155688
#        167121
#        177635
#        189294
#        202615
#        213380
#        226762
#        237329
#        250441
#        263572
#        279632
#        295514
#        306943
#
# Disc length: 4258 seconds
#
# Revision: 0
# Processed by: cddbd v1.5.2PL0 Copyright (c) Steve Scherf et al.
# Submitted via: ExactAudioCopy v1.0b4
#
DISCID=6310a019
DTITLE=Etta James - The Very Best Of Etta James
DYEAR=1960
DGENRE=Soul
TTITLE0=At Last
TTITLE1=I Just Want to Make Love To You
TTITLE2=W-O-M-A-N
TTITLE3=Seven Day Fool
TTITLE4=Stormy Weather
TTITLE5=Sunday Kind Of Love
TTITLE6=Don't Cry Baby
TTITLE7=Dream
TTITLE8=Fool That I Am
TTITLE9=Trust In Me
TTITLE10=Do Something Crazy
TTITLE11=Anything To Say You're Mine
TTITLE12=In My Diary
TTITLE13=Girl of My Dreams
TTITLE14=I'll Dry My Tears
TTITLE15=Plum Nuts
TTITLE16=Don't Get Around Much Anymore
TTITLE17=My Dearest Darling
TTITLE18=Tough Mary
TTITLE19=All I Could Do Was Cry
TTITLE20=If I Can't Have You
TTITLE21=Again
TTITLE22=Don't Take Your Love From Me
TTITLE23=How Do You Speak To An Angel
TTITLE24=Spoonful
EXTD=
EXTT0=
EXTT1=
EXTT2=
EXTT3=
EXTT4=
EXTT5=
EXTT6=
EXTT7=
EXTT8=
EXTT9=
EXTT10=
EXTT11=
EXTT12=
EXTT13=
EXTT14=
EXTT15=
EXTT16=
EXTT17=
EXTT18=
EXTT19=
EXTT20=
EXTT21=
EXTT22=
EXTT23=
EXTT24=
PLAYORDER=
